<svg id="visual" viewBox="0 0 1920 1080" width="1920" height="1080" xmlns="http://www.w3.org/2000/svg" xmlns:xlink="http://www.w3.org/1999/xlink" version="1.1"><g stroke-width="1" stroke-linejoin="bevel"><path d="M926 588.1L847 648.1L1002 749.4Z" fill="#21a459" stroke="#21a459"></path><path d="M1002 749.4L1123 572.1L926 588.1Z" fill="#285a38" stroke="#285a38"></path><path d="M847 648.1L795 816.4L1002 749.4Z" fill="#21a459" stroke="#21a459"></path><path d="M1002 749.4L1125 881.7L1077 744.4Z" fill="#264930" stroke="#264930"></path><path d="M1077 744.4L1123 572.1L1002 749.4Z" fill="#1e2821" stroke="#1e2821"></path><path d="M1123 572.1L1007 459.9L926 588.1Z" fill="#264930" stroke="#264930"></path><path d="M926 588.1L777 476.9L847 648.1Z" fill="#297e48" stroke="#297e48"></path><path d="M795 816.4L924 944.7L1002 749.4Z" fill="#00cc6a" stroke="#00cc6a"></path><path d="M1007 459.9L777 476.9L926 588.1Z" fill="#00cc6a" stroke="#00cc6a"></path><path d="M847 648.1L610 653.1L795 816.4Z" fill="#21a459" stroke="#21a459"></path><path d="M803 877.7L924 944.7L795 816.4Z" fill="#264930" stroke="#264930"></path><path d="M924 944.7L1125 881.7L1002 749.4Z" fill="#297e48" stroke="#297e48"></path><path d="M1077 744.4L1311 608.1L1123 572.1Z" fill="#18b861" stroke="#18b861"></path><path d="M1123 572.1L1114 465.9L1007 459.9Z" fill="#00cc6a" stroke="#00cc6a"></path><path d="M777 476.9L610 653.1L847 648.1Z" fill="#00cc6a" stroke="#00cc6a"></path><path d="M795 816.4L594 797.4L803 877.7Z" fill="#21a459" stroke="#21a459"></path><path d="M610 653.1L594 797.4L795 816.4Z" fill="#296c40" stroke="#296c40"></path><path d="M838 1080L984 1080L924 944.7Z" fill="#269150" stroke="#269150"></path><path d="M765 267.6L651 449.9L777 476.9Z" fill="#296c40" stroke="#296c40"></path><path d="M777 476.9L651 449.9L610 653.1Z" fill="#21a459" stroke="#21a459"></path><path d="M1128 314.6L917 313.6L1007 459.9Z" fill="#233828" stroke="#233828"></path><path d="M1007 459.9L917 313.6L777 476.9Z" fill="#297e48" stroke="#297e48"></path><path d="M1316 755.4L1311 608.1L1077 744.4Z" fill="#264930" stroke="#264930"></path><path d="M1123 572.1L1263 473.9L1114 465.9Z" fill="#00cc6a" stroke="#00cc6a"></path><path d="M1114 465.9L1128 314.6L1007 459.9Z" fill="#264930" stroke="#264930"></path><path d="M1125 881.7L1316 755.4L1077 744.4Z" fill="#233828" stroke="#233828"></path><path d="M1311 608.1L1263 473.9L1123 572.1Z" fill="#1e2821" stroke="#1e2821"></path><path d="M838 1080L924 944.7L803 877.7Z" fill="#264930" stroke="#264930"></path><path d="M924 944.7L1078 1080L1125 881.7Z" fill="#18b861" stroke="#18b861"></path><path d="M1125 881.7L1300 972.7L1316 755.4Z" fill="#297e48" stroke="#297e48"></path><path d="M620 961.7L838 1080L803 877.7Z" fill="#21a459" stroke="#21a459"></path><path d="M1263 473.9L1128 314.6L1114 465.9Z" fill="#296c40" stroke="#296c40"></path><path d="M594 797.4L620 961.7L803 877.7Z" fill="#233828" stroke="#233828"></path><path d="M984 1080L1078 1080L924 944.7Z" fill="#296c40" stroke="#296c40"></path><path d="M651 449.9L502 589.1L610 653.1Z" fill="#191919" stroke="#191919"></path><path d="M610 653.1L503 814.4L594 797.4Z" fill="#285a38" stroke="#285a38"></path><path d="M594 797.4L503 814.4L620 961.7Z" fill="#285a38" stroke="#285a38"></path><path d="M917 313.6L765 267.6L777 476.9Z" fill="#285a38" stroke="#285a38"></path><path d="M651 449.9L498 476.9L502 589.1Z" fill="#264930" stroke="#264930"></path><path d="M766 139.3L765 267.6L917 313.6Z" fill="#233828" stroke="#233828"></path><path d="M502 589.1L503 814.4L610 653.1Z" fill="#233828" stroke="#233828"></path><path d="M1254 1080L1300 972.7L1125 881.7Z" fill="#296c40" stroke="#296c40"></path><path d="M467 311.6L498 476.9L651 449.9Z" fill="#297e48" stroke="#297e48"></path><path d="M360 788.4L452 924.7L503 814.4Z" fill="#00cc6a" stroke="#00cc6a"></path><path d="M1316 755.4L1417 770.4L1311 608.1Z" fill="#233828" stroke="#233828"></path><path d="M1311 608.1L1424 467.9L1263 473.9Z" fill="#297e48" stroke="#297e48"></path><path d="M1416 902.7L1417 770.4L1316 755.4Z" fill="#297e48" stroke="#297e48"></path><path d="M765 267.6L651 270.6L651 449.9Z" fill="#1e2821" stroke="#1e2821"></path><path d="M1263 473.9L1242 283.6L1128 314.6Z" fill="#296c40" stroke="#296c40"></path><path d="M1128 314.6L1130 179.3L917 313.6Z" fill="#00cc6a" stroke="#00cc6a"></path><path d="M1451 313.6L1242 283.6L1263 473.9Z" fill="#00cc6a" stroke="#00cc6a"></path><path d="M1078 1080L1254 1080L1125 881.7Z" fill="#00cc6a" stroke="#00cc6a"></path><path d="M1300 972.7L1416 902.7L1316 755.4Z" fill="#18b861" stroke="#18b861"></path><path d="M1417 770.4L1447 588.1L1311 608.1Z" fill="#191919" stroke="#191919"></path><path d="M452 924.7L598 1080L620 961.7Z" fill="#191919" stroke="#191919"></path><path d="M620 961.7L598 1080L838 1080Z" fill="#233828" stroke="#233828"></path><path d="M1418 1080L1416 902.7L1300 972.7Z" fill="#296c40" stroke="#296c40"></path><path d="M1417 770.4L1584 763.4L1447 588.1Z" fill="#00cc6a" stroke="#00cc6a"></path><path d="M1447 588.1L1424 467.9L1311 608.1Z" fill="#18b861" stroke="#18b861"></path><path d="M1242 283.6L1130 179.3L1128 314.6Z" fill="#21a459" stroke="#21a459"></path><path d="M765 267.6L648 162.3L651 270.6Z" fill="#00cc6a" stroke="#00cc6a"></path><path d="M360 788.4L503 814.4L502 589.1Z" fill="#296c40" stroke="#296c40"></path><path d="M503 814.4L452 924.7L620 961.7Z" fill="#297e48" stroke="#297e48"></path><path d="M1130 179.3L980 120.3L917 313.6Z" fill="#285a38" stroke="#285a38"></path><path d="M980 120.3L766 139.3L917 313.6Z" fill="#296c40" stroke="#296c40"></path><path d="M1242 283.6L1238 194.3L1130 179.3Z" fill="#296c40" stroke="#296c40"></path><path d="M1084 0L995 0L980 120.3Z" fill="#1e2821" stroke="#1e2821"></path><path d="M1396 185.3L1238 194.3L1242 283.6Z" fill="#296c40" stroke="#296c40"></path><path d="M276 619.1L360 788.4L502 589.1Z" fill="#269150" stroke="#269150"></path><path d="M766 139.3L648 162.3L765 267.6Z" fill="#00cc6a" stroke="#00cc6a"></path><path d="M651 270.6L467 311.6L651 449.9Z" fill="#1e2821" stroke="#1e2821"></path><path d="M499 118.3L467 311.6L651 270.6Z" fill="#296c40" stroke="#296c40"></path><path d="M498 476.9L276 619.1L502 589.1Z" fill="#296c40" stroke="#296c40"></path><path d="M1254 1080L1418 1080L1300 972.7Z" fill="#296c40" stroke="#296c40"></path><path d="M1416 902.7L1584 763.4L1417 770.4Z" fill="#296c40" stroke="#296c40"></path><path d="M1614 452.9L1451 313.6L1424 467.9Z" fill="#191919" stroke="#191919"></path><path d="M1424 467.9L1451 313.6L1263 473.9Z" fill="#285a38" stroke="#285a38"></path><path d="M452 924.7L438 1080L598 1080Z" fill="#264930" stroke="#264930"></path><path d="M333 961.7L438 1080L452 924.7Z" fill="#1e2821" stroke="#1e2821"></path><path d="M1626 966.7L1584 763.4L1416 902.7Z" fill="#21a459" stroke="#21a459"></path><path d="M1447 588.1L1614 452.9L1424 467.9Z" fill="#297e48" stroke="#297e48"></path><path d="M273 454.9L276 619.1L498 476.9Z" fill="#18b861" stroke="#18b861"></path><path d="M360 788.4L333 961.7L452 924.7Z" fill="#1e2821" stroke="#1e2821"></path><path d="M171 816.4L333 961.7L360 788.4Z" fill="#00cc6a" stroke="#00cc6a"></path><path d="M1584 763.4L1611 643.1L1447 588.1Z" fill="#191919" stroke="#191919"></path><path d="M1577 268.6L1396 185.3L1451 313.6Z" fill="#269150" stroke="#269150"></path><path d="M1451 313.6L1396 185.3L1242 283.6Z" fill="#285a38" stroke="#285a38"></path><path d="M1084 0L980 120.3L1130 179.3Z" fill="#297e48" stroke="#297e48"></path><path d="M980 120.3L824 0L766 139.3Z" fill="#233828" stroke="#233828"></path><path d="M766 139.3L608 0L648 162.3Z" fill="#297e48" stroke="#297e48"></path><path d="M1084 0L1130 179.3L1238 194.3Z" fill="#264930" stroke="#264930"></path><path d="M995 0L824 0L980 120.3Z" fill="#18b861" stroke="#18b861"></path><path d="M315 189.3L338 299.6L467 311.6Z" fill="#296c40" stroke="#296c40"></path><path d="M1324 0L1084 0L1238 194.3Z" fill="#269150" stroke="#269150"></path><path d="M338 299.6L273 454.9L498 476.9Z" fill="#191919" stroke="#191919"></path><path d="M338 299.6L498 476.9L467 311.6Z" fill="#00cc6a" stroke="#00cc6a"></path><path d="M499 118.3L651 270.6L648 162.3Z" fill="#297e48" stroke="#297e48"></path><path d="M608 0L499 118.3L648 162.3Z" fill="#269150" stroke="#269150"></path><path d="M333 961.7L340 1080L438 1080Z" fill="#1e2821" stroke="#1e2821"></path><path d="M120 1080L340 1080L333 961.7Z" fill="#285a38" stroke="#285a38"></path><path d="M1611 643.1L1614 452.9L1447 588.1Z" fill="#297e48" stroke="#297e48"></path><path d="M1568 1080L1626 966.7L1416 902.7Z" fill="#285a38" stroke="#285a38"></path><path d="M1755 760.4L1720 588.1L1611 643.1Z" fill="#191919" stroke="#191919"></path><path d="M1611 643.1L1720 588.1L1614 452.9Z" fill="#297e48" stroke="#297e48"></path><path d="M1418 1080L1568 1080L1416 902.7Z" fill="#1e2821" stroke="#1e2821"></path><path d="M824 0L608 0L766 139.3Z" fill="#191919" stroke="#191919"></path><path d="M1614 452.9L1577 268.6L1451 313.6Z" fill="#00cc6a" stroke="#00cc6a"></path><path d="M1396 185.3L1324 0L1238 194.3Z" fill="#264930" stroke="#264930"></path><path d="M273 454.9L182 504.9L276 619.1Z" fill="#1e2821" stroke="#1e2821"></path><path d="M276 619.1L171 816.4L360 788.4Z" fill="#285a38" stroke="#285a38"></path><path d="M120 337.6L182 504.9L273 454.9Z" fill="#233828" stroke="#233828"></path><path d="M116 574.1L171 816.4L276 619.1Z" fill="#191919" stroke="#191919"></path><path d="M1436 0L1324 0L1396 185.3Z" fill="#18b861" stroke="#18b861"></path><path d="M1755 760.4L1611 643.1L1584 763.4Z" fill="#296c40" stroke="#296c40"></path><path d="M1614 452.9L1723 283.6L1577 268.6Z" fill="#21a459" stroke="#21a459"></path><path d="M499 118.3L315 189.3L467 311.6Z" fill="#00cc6a" stroke="#00cc6a"></path><path d="M338 299.6L120 337.6L273 454.9Z" fill="#285a38" stroke="#285a38"></path><path d="M278 0L315 189.3L499 118.3Z" fill="#18b861" stroke="#18b861"></path><path d="M0 795.4L158 892.7L171 816.4Z" fill="#191919" stroke="#191919"></path><path d="M171 816.4L158 892.7L333 961.7Z" fill="#00cc6a" stroke="#00cc6a"></path><path d="M608 0L506 0L499 118.3Z" fill="#297e48" stroke="#297e48"></path><path d="M1720 588.1L1718 454.9L1614 452.9Z" fill="#21a459" stroke="#21a459"></path><path d="M1626 966.7L1755 760.4L1584 763.4Z" fill="#296c40" stroke="#296c40"></path><path d="M1720 588.1L1920 586.1L1718 454.9Z" fill="#264930" stroke="#264930"></path><path d="M1786 914.7L1755 760.4L1626 966.7Z" fill="#1e2821" stroke="#1e2821"></path><path d="M0 465.9L116 574.1L182 504.9Z" fill="#18b861" stroke="#18b861"></path><path d="M182 504.9L116 574.1L276 619.1Z" fill="#285a38" stroke="#285a38"></path><path d="M1614 173.3L1436 0L1396 185.3Z" fill="#191919" stroke="#191919"></path><path d="M1614 173.3L1396 185.3L1577 268.6Z" fill="#233828" stroke="#233828"></path><path d="M1723 283.6L1614 173.3L1577 268.6Z" fill="#297e48" stroke="#297e48"></path><path d="M1786 1080L1786 914.7L1626 966.7Z" fill="#297e48" stroke="#297e48"></path><path d="M1920 355.6L1723 283.6L1718 454.9Z" fill="#1e2821" stroke="#1e2821"></path><path d="M1920 586.1L1720 588.1L1755 760.4Z" fill="#269150" stroke="#269150"></path><path d="M1718 454.9L1723 283.6L1614 452.9Z" fill="#296c40" stroke="#296c40"></path><path d="M315 189.3L120 337.6L338 299.6Z" fill="#18b861" stroke="#18b861"></path><path d="M195 125.3L120 337.6L315 189.3Z" fill="#191919" stroke="#191919"></path><path d="M0 931.7L120 1080L158 892.7Z" fill="#18b861" stroke="#18b861"></path><path d="M158 892.7L120 1080L333 961.7Z" fill="#264930" stroke="#264930"></path><path d="M278 0L195 125.3L315 189.3Z" fill="#269150" stroke="#269150"></path><path d="M0 465.9L0 650.1L116 574.1Z" fill="#1e2821" stroke="#1e2821"></path><path d="M116 574.1L0 650.1L171 816.4Z" fill="#269150" stroke="#269150"></path><path d="M0 465.9L182 504.9L120 337.6Z" fill="#269150" stroke="#269150"></path><path d="M1568 1080L1786 1080L1626 966.7Z" fill="#233828" stroke="#233828"></path><path d="M0 650.1L0 795.4L171 816.4Z" fill="#233828" stroke="#233828"></path><path d="M506 0L278 0L499 118.3Z" fill="#1e2821" stroke="#1e2821"></path><path d="M0 354.6L0 465.9L120 337.6Z" fill="#285a38" stroke="#285a38"></path><path d="M0 795.4L0 931.7L158 892.7Z" fill="#264930" stroke="#264930"></path><path d="M1773 107.3L1647 0L1614 173.3Z" fill="#1e2821" stroke="#1e2821"></path><path d="M1614 173.3L1647 0L1436 0Z" fill="#296c40" stroke="#296c40"></path><path d="M1920 797.4L1755 760.4L1786 914.7Z" fill="#21a459" stroke="#21a459"></path><path d="M1920 797.4L1920 586.1L1755 760.4Z" fill="#269150" stroke="#269150"></path><path d="M1723 283.6L1773 107.3L1614 173.3Z" fill="#1e2821" stroke="#1e2821"></path><path d="M0 126.3L0 354.6L120 337.6Z" fill="#18b861" stroke="#18b861"></path><path d="M0 126.3L120 337.6L195 125.3Z" fill="#00cc6a" stroke="#00cc6a"></path><path d="M1920 922.7L1920 797.4L1786 914.7Z" fill="#191919" stroke="#191919"></path><path d="M1920 586.1L1920 444.9L1718 454.9Z" fill="#285a38" stroke="#285a38"></path><path d="M1786 1080L1920 922.7L1786 914.7Z" fill="#1e2821" stroke="#1e2821"></path><path d="M1920 118.3L1773 107.3L1723 283.6Z" fill="#233828" stroke="#233828"></path><path d="M0 931.7L0 1080L120 1080Z" fill="#269150" stroke="#269150"></path><path d="M1920 444.9L1920 355.6L1718 454.9Z" fill="#21a459" stroke="#21a459"></path><path d="M1920 0L1740 0L1773 107.3Z" fill="#297e48" stroke="#297e48"></path><path d="M1773 107.3L1740 0L1647 0Z" fill="#00cc6a" stroke="#00cc6a"></path><path d="M1786 1080L1920 1080L1920 922.7Z" fill="#285a38" stroke="#285a38"></path><path d="M278 0L117 0L195 125.3Z" fill="#269150" stroke="#269150"></path><path d="M117 0L0 126.3L195 125.3Z" fill="#18b861" stroke="#18b861"></path><path d="M1920 355.6L1920 118.3L1723 283.6Z" fill="#18b861" stroke="#18b861"></path><path d="M117 0L0 0L0 126.3Z" fill="#1e2821" stroke="#1e2821"></path><path d="M1920 118.3L1920 0L1773 107.3Z" fill="#191919" stroke="#191919"></path></g></svg>