<svg id="visual" viewBox="0 0 900 675" width="900" height="675" xmlns="http://www.w3.org/2000/svg" xmlns:xlink="http://www.w3.org/1999/xlink" version="1.1"><g stroke-width="1" stroke-linejoin="bevel"><path d="M460 363.5L514.5 311.5L384.5 325.5Z" fill="#297e48" stroke="#297e48"></path><path d="M437 181L360.5 236L384.5 325.5Z" fill="#264930" stroke="#264930"></path><path d="M514.5 311.5L437 181L384.5 325.5Z" fill="#285a38" stroke="#285a38"></path><path d="M514.5 311.5L516.5 201L437 181Z" fill="#285a38" stroke="#285a38"></path><path d="M516.5 201L464 147.5L437 181Z" fill="#285a38" stroke="#285a38"></path><path d="M295.5 73.5L235 199L360.5 236Z" fill="#191919" stroke="#191919"></path><path d="M336.5 478L425 487L384.5 325.5Z" fill="#233828" stroke="#233828"></path><path d="M384.5 325.5L425 487L460 363.5Z" fill="#18b861" stroke="#18b861"></path><path d="M460 363.5L583.5 459L514.5 311.5Z" fill="#285a38" stroke="#285a38"></path><path d="M360.5 236L253 349.5L384.5 325.5Z" fill="#1e2821" stroke="#1e2821"></path><path d="M253 349.5L276 417L384.5 325.5Z" fill="#297e48" stroke="#297e48"></path><path d="M481 521.5L583.5 459L460 363.5Z" fill="#264930" stroke="#264930"></path><path d="M514.5 311.5L660 220L516.5 201Z" fill="#269150" stroke="#269150"></path><path d="M276 417L336.5 478L384.5 325.5Z" fill="#21a459" stroke="#21a459"></path><path d="M717 288.5L660 220L514.5 311.5Z" fill="#296c40" stroke="#296c40"></path><path d="M516.5 201L594.5 102.5L464 147.5Z" fill="#297e48" stroke="#297e48"></path><path d="M425 487L481 521.5L460 363.5Z" fill="#269150" stroke="#269150"></path><path d="M436 675L481 521.5L425 487Z" fill="#21a459" stroke="#21a459"></path><path d="M295.5 73.5L360.5 236L437 181Z" fill="#297e48" stroke="#297e48"></path><path d="M360.5 236L235 199L253 349.5Z" fill="#297e48" stroke="#297e48"></path><path d="M660 220L594.5 102.5L516.5 201Z" fill="#285a38" stroke="#285a38"></path><path d="M464 147.5L295.5 73.5L437 181Z" fill="#296c40" stroke="#296c40"></path><path d="M276 417L317.5 518.5L336.5 478Z" fill="#21a459" stroke="#21a459"></path><path d="M336.5 478L317.5 518.5L425 487Z" fill="#18b861" stroke="#18b861"></path><path d="M427 0L295.5 73.5L464 147.5Z" fill="#264930" stroke="#264930"></path><path d="M583.5 459L717 288.5L514.5 311.5Z" fill="#00cc6a" stroke="#00cc6a"></path><path d="M660 220L671 100.5L594.5 102.5Z" fill="#1e2821" stroke="#1e2821"></path><path d="M548.5 568.5L634 499L583.5 459Z" fill="#269150" stroke="#269150"></path><path d="M583.5 459L634 499L717 288.5Z" fill="#233828" stroke="#233828"></path><path d="M436 675L548.5 568.5L481 521.5Z" fill="#269150" stroke="#269150"></path><path d="M481 521.5L548.5 568.5L583.5 459Z" fill="#296c40" stroke="#296c40"></path><path d="M529.5 0L427 0L464 147.5Z" fill="#191919" stroke="#191919"></path><path d="M766.5 127.5L671 100.5L660 220Z" fill="#297e48" stroke="#297e48"></path><path d="M594.5 102.5L529.5 0L464 147.5Z" fill="#264930" stroke="#264930"></path><path d="M295.5 73.5L199 126.5L235 199Z" fill="#296c40" stroke="#296c40"></path><path d="M235 199L144.5 342.5L253 349.5Z" fill="#18b861" stroke="#18b861"></path><path d="M274 0L199 126.5L295.5 73.5Z" fill="#264930" stroke="#264930"></path><path d="M253 349.5L155.5 404L276 417Z" fill="#269150" stroke="#269150"></path><path d="M276 417L227 587.5L317.5 518.5Z" fill="#21a459" stroke="#21a459"></path><path d="M98.5 259L144.5 342.5L235 199Z" fill="#269150" stroke="#269150"></path><path d="M627 0L529.5 0L594.5 102.5Z" fill="#233828" stroke="#233828"></path><path d="M144.5 342.5L155.5 404L253 349.5Z" fill="#1e2821" stroke="#1e2821"></path><path d="M717 288.5L751.5 229L660 220Z" fill="#1e2821" stroke="#1e2821"></path><path d="M820.5 326.5L751.5 229L717 288.5Z" fill="#264930" stroke="#264930"></path><path d="M427 0L289.5 0L295.5 73.5Z" fill="#00cc6a" stroke="#00cc6a"></path><path d="M289.5 0L274 0L295.5 73.5Z" fill="#269150" stroke="#269150"></path><path d="M157.5 0L132.5 155.5L199 126.5Z" fill="#296c40" stroke="#296c40"></path><path d="M199 126.5L132.5 155.5L235 199Z" fill="#00cc6a" stroke="#00cc6a"></path><path d="M671 100.5L627 0L594.5 102.5Z" fill="#296c40" stroke="#296c40"></path><path d="M827.5 0L627 0L671 100.5Z" fill="#264930" stroke="#264930"></path><path d="M132.5 155.5L98.5 259L235 199Z" fill="#264930" stroke="#264930"></path><path d="M144.5 342.5L0 402L155.5 404Z" fill="#264930" stroke="#264930"></path><path d="M751.5 229L766.5 127.5L660 220Z" fill="#21a459" stroke="#21a459"></path><path d="M155.5 404L227 587.5L276 417Z" fill="#1e2821" stroke="#1e2821"></path><path d="M317.5 518.5L436 675L425 487Z" fill="#285a38" stroke="#285a38"></path><path d="M160.5 605.5L227 587.5L155.5 404Z" fill="#296c40" stroke="#296c40"></path><path d="M804.5 498L820.5 326.5L717 288.5Z" fill="#21a459" stroke="#21a459"></path><path d="M751.5 229L900 237L766.5 127.5Z" fill="#1e2821" stroke="#1e2821"></path><path d="M318.5 675L436 675L317.5 518.5Z" fill="#00cc6a" stroke="#00cc6a"></path><path d="M548.5 568.5L717 565.5L634 499Z" fill="#285a38" stroke="#285a38"></path><path d="M637 675L717 565.5L548.5 568.5Z" fill="#285a38" stroke="#285a38"></path><path d="M634 499L804.5 498L717 288.5Z" fill="#296c40" stroke="#296c40"></path><path d="M227 587.5L318.5 675L317.5 518.5Z" fill="#18b861" stroke="#18b861"></path><path d="M436 675L600.5 675L548.5 568.5Z" fill="#00cc6a" stroke="#00cc6a"></path><path d="M789.5 526.5L804.5 498L634 499Z" fill="#00cc6a" stroke="#00cc6a"></path><path d="M789.5 526.5L634 499L717 565.5Z" fill="#296c40" stroke="#296c40"></path><path d="M767.5 675L789.5 526.5L717 565.5Z" fill="#21a459" stroke="#21a459"></path><path d="M274 0L157.5 0L199 126.5Z" fill="#233828" stroke="#233828"></path><path d="M0 241L0 336.5L98.5 259Z" fill="#269150" stroke="#269150"></path><path d="M0 551.5L160.5 605.5L155.5 404Z" fill="#269150" stroke="#269150"></path><path d="M227 587.5L201 675L318.5 675Z" fill="#264930" stroke="#264930"></path><path d="M600.5 675L637 675L548.5 568.5Z" fill="#297e48" stroke="#297e48"></path><path d="M0 241L98.5 259L132.5 155.5Z" fill="#269150" stroke="#269150"></path><path d="M98.5 259L0 336.5L144.5 342.5Z" fill="#285a38" stroke="#285a38"></path><path d="M0 121.5L0 241L132.5 155.5Z" fill="#285a38" stroke="#285a38"></path><path d="M63.5 675L201 675L160.5 605.5Z" fill="#264930" stroke="#264930"></path><path d="M160.5 605.5L201 675L227 587.5Z" fill="#191919" stroke="#191919"></path><path d="M900 385.5L900 237L820.5 326.5Z" fill="#00cc6a" stroke="#00cc6a"></path><path d="M820.5 326.5L900 237L751.5 229Z" fill="#285a38" stroke="#285a38"></path><path d="M766.5 127.5L827.5 0L671 100.5Z" fill="#264930" stroke="#264930"></path><path d="M0 336.5L0 402L144.5 342.5Z" fill="#18b861" stroke="#18b861"></path><path d="M900 461L900 385.5L804.5 498Z" fill="#296c40" stroke="#296c40"></path><path d="M804.5 498L900 385.5L820.5 326.5Z" fill="#233828" stroke="#233828"></path><path d="M157.5 0L0 121.5L132.5 155.5Z" fill="#191919" stroke="#191919"></path><path d="M900 96.5L827.5 0L766.5 127.5Z" fill="#264930" stroke="#264930"></path><path d="M900 516.5L804.5 498L789.5 526.5Z" fill="#18b861" stroke="#18b861"></path><path d="M900 516.5L900 461L804.5 498Z" fill="#264930" stroke="#264930"></path><path d="M900 237L900 96.5L766.5 127.5Z" fill="#285a38" stroke="#285a38"></path><path d="M637 675L767.5 675L717 565.5Z" fill="#1e2821" stroke="#1e2821"></path><path d="M900 675L900 516.5L789.5 526.5Z" fill="#264930" stroke="#264930"></path><path d="M0 402L0 551.5L155.5 404Z" fill="#264930" stroke="#264930"></path><path d="M157.5 0L0 0L0 121.5Z" fill="#296c40" stroke="#296c40"></path><path d="M0 551.5L63.5 675L160.5 605.5Z" fill="#21a459" stroke="#21a459"></path><path d="M900 96.5L900 0L827.5 0Z" fill="#1e2821" stroke="#1e2821"></path><path d="M0 551.5L0 675L63.5 675Z" fill="#285a38" stroke="#285a38"></path><path d="M767.5 675L900 675L789.5 526.5Z" fill="#297e48" stroke="#297e48"></path></g></svg>